<svg width="48" height="48" viewBox="0 0 48 48" fill="none" xmlns="http://www.w3.org/2000/svg">
  <rect width="48" height="48" rx="12" fill="#F0DB4F"/>
  <path fill-rule="evenodd" clip-rule="evenodd" d="M24 4C12.9543 4 4 12.9543 4 24C4 32.8366 9.83959 40.1203 17.4686 42.6113C18.271 42.7397 18.5755 42.2675 18.5755 41.8513C18.5755 41.4691 18.5613 40.3277 18.5515 38.9287C12.2037 40.097 11.2427 36.1377 11.2427 36.1377C10.5451 34.319 9.42467 33.863 9.42467 33.863C7.90378 32.9431 9.54718 32.9631 9.54718 32.9631C11.2251 33.0913 12.1067 34.684 12.1067 34.684C13.5487 37.0434 15.844 36.3452 16.7326 35.9339C16.8805 34.8914 17.2782 34.1703 17.7216 33.7504C12.9611 33.3115 8.06569 31.3305 8.06569 22.2783C8.06569 19.7427 8.9763 17.6495 10.4436 16.011C10.222 15.566 9.39151 13.1391 10.6342 9.95454C10.6342 9.95454 12.579 9.45403 18.5755 13.2276C20.3815 12.6826 22.3185 12.4071 24.2447 12.398C26.1705 12.4071 28.1079 12.6826 29.9142 13.2276C35.9107 9.45403 37.8548 9.95454 37.8548 9.95454C39.098 13.1391 38.2669 15.566 38.0453 16.011C39.5134 17.6495 40.422 19.7427 40.422 22.2783C40.422 31.3466 35.5208 33.305 30.7527 33.7404C31.335 34.246 31.8613 35.2766 31.8613 36.8151C31.8613 39.0997 31.8412 40.9868 31.8412 41.8513C31.8412 42.2675 32.1457 42.7434 32.9541 42.6113C40.5809 40.1203 46.422 32.8366 46.422 24C46.422 12.9543 37.0457 4 24 4Z" fill="#0E0C15"/>
</svg>
