<svg width="130" height="149" viewBox="0 0 130 149" fill="none" xmlns="http://www.w3.org/2000/svg">
<path d="M126.988 34.3568L68.7952 0.843851C67.8314 0.2411 66.5061 0 65.0603 0C63.6145 0 62.2892 0.36165 61.3253 0.843851L3.49398 34.4773C1.44578 35.6828 0 38.6966 0 40.987V108.133C0 109.459 0.240964 111.027 1.20482 112.353L129.88 37.6116C129.157 36.165 128.072 35.0801 126.988 34.3568Z" fill="#659AD3"/>
<path d="M0.843262 112.232C1.44567 113.197 2.28905 114.041 3.13242 114.523L61.2047 148.156C62.1686 148.759 63.4939 149 64.9397 149C66.3855 149 67.7108 148.638 68.6746 148.156L126.506 114.523C128.554 113.317 130 110.303 130 108.013V40.8666C130 39.7817 129.879 38.5762 129.277 37.4912L0.843262 112.232Z" fill="#03599C"/>
<path d="M90.723 89.0866C85.6628 98.0073 76.0242 104.035 65.0604 104.035C48.7953 104.035 35.5423 90.7743 35.5423 74.5001C35.5423 58.2258 48.7953 44.9653 65.0604 44.9653C76.0242 44.9653 85.6628 50.9928 90.723 60.0341L106.386 50.9928C98.1929 36.6474 82.7712 26.8828 65.0604 26.8828C38.7953 26.8828 17.47 48.2202 17.47 74.5001C17.47 100.78 38.7953 122.117 65.0604 122.117C82.6507 122.117 98.0724 112.473 106.265 98.2484L90.723 89.0866Z" fill="white"/>
</svg>
