<svg width="216" height="216" viewBox="0 0 216 216" fill="none" xmlns="http://www.w3.org/2000/svg">
<path d="M108 216C167.647 216 216 167.647 216 108C216 48.3532 167.647 0 108 0C48.3532 0 0 48.3532 0 108C0 167.647 48.3532 216 108 216Z" fill="url(#paint0_linear_2001_14)"/>
<path d="M157.582 97.4831C157.788 97.2591 157.925 96.9778 157.977 96.6742C158.029 96.3706 157.993 96.0581 157.873 95.7755C157.753 95.4929 157.555 95.2526 157.304 95.0846C157.052 94.9165 156.758 94.8281 156.458 94.8302H109.452C106.583 94.8302 107.053 93.2454 108.076 91.316C109.099 89.3694 135.102 40.6699 135.102 40.6699C135.219 40.4115 135.287 40.1531 135.287 39.8603C135.286 39.4934 135.18 39.1349 134.981 38.8297C134.783 38.5245 134.502 38.2861 134.172 38.1445C133.843 38.0029 133.48 37.9643 133.129 38.0335C132.778 38.1028 132.455 38.2768 132.2 38.5338L58.5033 113.952C58.1845 114.262 58 114.675 58 115.158C58 116.071 58.7214 116.811 59.6105 116.811H109.888C113.042 116.811 111.918 118.672 111.146 119.757C110.374 120.842 72.3098 174.882 72.3098 174.882C72.0973 175.171 71.9674 175.514 71.9347 175.874C71.9019 176.235 71.9677 176.597 72.1246 176.921C72.2814 177.245 72.5232 177.518 72.8226 177.708C73.1221 177.899 73.4674 178 73.8197 178C74.3397 178 74.8094 177.793 75.145 177.449C75.4805 177.104 157.565 97.552 157.565 97.552L157.582 97.5348L157.615 97.5003L157.582 97.4831Z" fill="white"/>
<defs>
<linearGradient id="paint0_linear_2001_14" x1="108" y1="0" x2="108" y2="216" gradientUnits="userSpaceOnUse">
<stop stop-color="#7ACBD4"/>
<stop offset="1" stop-color="#29C6B7"/>
</linearGradient>
</defs>
</svg>
