<svg width="301" height="197" viewBox="0 0 301 197" fill="none" xmlns="http://www.w3.org/2000/svg">
<path d="M88.255 88.4223C88.3639 88.4223 88.4717 88.4439 88.5722 88.4859C88.6728 88.5279 88.7639 88.5894 88.8405 88.6669L116.542 116.392C116.654 116.507 116.73 116.652 116.76 116.81C116.79 116.967 116.774 117.13 116.713 117.279C116.652 117.427 116.549 117.554 116.417 117.645C116.284 117.736 116.128 117.786 115.968 117.789H108.887C108.667 117.788 108.455 117.874 108.296 118.028C108.138 118.182 108.046 118.391 108.04 118.612V180.944C108.049 184.889 109.617 188.671 112.402 191.466L116.541 195.604C116.652 195.719 116.728 195.864 116.758 196.022C116.788 196.179 116.772 196.341 116.711 196.49C116.65 196.638 116.548 196.765 116.416 196.856C116.284 196.946 116.128 196.996 115.968 197H83.3049C75.0428 197 68.3455 190.303 68.3455 182.041V118.612C68.3455 118.504 68.3242 118.397 68.2829 118.297C68.2415 118.197 68.1809 118.106 68.1045 118.03C68.028 117.954 67.9373 117.893 67.8375 117.852C67.7376 117.81 67.6306 117.789 67.5225 117.789H60.5407C60.3782 117.791 60.2188 117.744 60.0827 117.655C59.9466 117.567 59.8398 117.439 59.7758 117.29C59.7117 117.141 59.6934 116.976 59.723 116.816C59.7527 116.656 59.8289 116.509 59.9423 116.392L87.6682 88.668C87.7447 88.59 87.836 88.528 87.9368 88.4856C88.0375 88.4432 88.1457 88.4213 88.255 88.4211M149.516 104.477C149.625 104.477 149.733 104.499 149.834 104.541C149.934 104.583 150.026 104.645 150.102 104.723L177.828 132.348C177.941 132.465 178.018 132.612 178.047 132.772C178.077 132.932 178.058 133.097 177.994 133.246C177.93 133.395 177.824 133.523 177.688 133.611C177.551 133.7 177.392 133.747 177.23 133.745H170.149C169.929 133.751 169.719 133.843 169.566 134.001C169.412 134.159 169.326 134.371 169.326 134.591V180.943C169.329 184.885 170.888 188.666 173.665 191.465L177.828 195.603C177.941 195.72 178.017 195.867 178.046 196.027C178.076 196.186 178.057 196.351 177.993 196.5C177.929 196.649 177.823 196.776 177.687 196.865C177.551 196.954 177.392 197 177.23 196.999H144.642C136.379 196.999 129.681 190.302 129.681 182.04V134.642C129.681 134.421 129.596 134.209 129.442 134.051C129.288 133.892 129.079 133.8 128.858 133.794H121.803C121.643 133.791 121.487 133.741 121.355 133.651C121.222 133.56 121.119 133.433 121.058 133.284C120.997 133.136 120.981 132.973 121.011 132.815C121.042 132.658 121.118 132.513 121.23 132.398L148.931 104.723C149.007 104.645 149.099 104.583 149.199 104.541C149.3 104.499 149.407 104.477 149.516 104.477ZM210.791 120.361C211.006 120.361 211.214 120.45 211.363 120.605L239.089 148.305C239.21 148.419 239.293 148.566 239.328 148.728C239.364 148.889 239.35 149.058 239.288 149.211C239.226 149.365 239.119 149.496 238.982 149.588C238.844 149.68 238.682 149.728 238.517 149.727H231.41C231.192 149.727 230.983 149.814 230.828 149.968C230.674 150.122 230.587 150.332 230.587 150.55V180.943C230.597 184.888 232.165 188.67 234.951 191.465L239.089 195.603C239.201 195.718 239.276 195.863 239.307 196.02C239.337 196.178 239.321 196.34 239.26 196.488C239.199 196.637 239.096 196.764 238.964 196.854C238.832 196.945 238.677 196.995 238.517 196.999H205.829C197.567 196.999 190.869 190.302 190.869 182.04V150.549C190.869 150.33 190.782 150.121 190.627 149.967C190.473 149.812 190.264 149.726 190.045 149.726H183.065C182.9 149.727 182.738 149.679 182.6 149.587C182.463 149.495 182.356 149.364 182.294 149.211C182.232 149.058 182.218 148.889 182.253 148.728C182.288 148.566 182.371 148.419 182.491 148.305L210.216 120.605C210.291 120.528 210.38 120.466 210.479 120.425C210.577 120.383 210.684 120.361 210.791 120.361ZM148.956 0.00157086C192.506 0.319022 230.919 28.5992 244.151 70.0924C276.497 74.3134 300.765 101.753 301 134.368C301 161.287 284.164 183.656 256.981 192.97L255.97 193.309L254.724 193.708V173.612C272.002 166.332 282.15 151.945 282.15 134.368C282.062 109.563 262.418 89.31 237.729 88.3659L236.895 88.3423H229.416L227.621 81.2103C218.81 44.8445 186.375 19.1427 148.956 18.8782C133.882 18.8061 119.094 22.9851 106.288 30.9356C93.4822 38.8861 83.1772 50.286 76.556 63.8269L73.7812 69.5422L68.5442 70.0913C44.897 72.6203 25.4791 89.9167 20.2433 113.115C15.0817 135.982 24.8265 159.589 44.5184 172.174L45.3814 172.715V193.908H45.2568L43.3873 193.06C13.8095 179.465 -3.5144 148.242 0.600816 115.951C4.71839 83.6617 29.3227 57.7824 61.3649 52.04C78.6747 19.8164 112.376 -0.204185 148.956 0.00157086Z" fill="#3448C5"/>
</svg>
