<svg width="111" height="151" viewBox="0 0 111 151" fill="none" xmlns="http://www.w3.org/2000/svg">
<path d="M35.7467 116.775C35.7467 116.775 29.999 120.131 39.8425 121.263C51.7694 122.63 57.8643 122.434 71.0042 119.942C71.0042 119.942 74.4658 122.113 79.291 123.996C49.8246 136.661 12.6054 123.261 35.7467 116.775ZM32.144 100.245C32.144 100.245 25.6959 105.034 35.5477 106.057C48.2885 107.377 58.3478 107.485 75.7631 104.122C75.7631 104.122 78.1661 106.571 81.9508 107.909C46.3317 118.361 6.65884 108.732 32.144 100.245Z" fill="#0074BD"/>
<path d="M62.4953 72.1991C69.7598 80.5883 60.5903 88.1307 60.5903 88.1307C60.5903 88.1307 79.0245 78.585 70.5603 66.6261C62.6521 55.4788 56.5897 49.9421 89.4117 30.8435C89.4117 30.8447 37.8903 43.7509 62.4953 72.1991Z" fill="#EA2D2E"/>
<path d="M101.465 129.004C101.465 129.004 105.72 132.524 96.7774 135.244C79.7745 140.412 25.9948 141.97 11.0584 135.451C5.69179 133.107 15.7595 129.857 18.9269 129.171C22.2294 128.453 24.1151 128.584 24.1151 128.584C18.1432 124.366 -14.4834 136.87 7.54497 140.457C67.6148 150.226 117.044 136.057 101.465 129.004ZM38.5137 83.1142C38.5137 83.1142 11.1609 89.6332 28.8282 92.003C36.2892 93.0046 51.1556 92.7748 65.0129 91.6086C76.3346 90.6542 87.696 88.6158 87.696 88.6158C87.696 88.6158 83.7075 90.3324 80.8186 92.309C53.0366 99.6409 -0.620121 96.226 14.8287 88.7308C27.889 82.3932 38.5137 83.1142 38.5137 83.1142ZM87.5827 110.631C115.822 95.9127 102.764 81.7678 93.6498 83.6731C91.4217 84.1388 90.4221 84.544 90.4221 84.544C90.4221 84.544 91.2517 83.2388 92.8335 82.6775C110.863 76.3206 124.726 101.431 87.0184 111.377C87.0184 111.375 87.4512 110.982 87.5827 110.631Z" fill="#0074BD"/>
<path d="M70.5604 0C70.5604 0 86.1961 15.6969 55.7265 39.8265C31.2915 59.1888 50.1549 70.226 55.7181 82.8418C41.4533 69.9308 30.9901 58.5634 38.0086 47.9847C48.315 32.4596 76.8675 24.9292 70.5604 0Z" fill="#EA2D2E"/>
<path d="M41.2892 150.526C68.3888 152.265 110.015 149.559 111 136.692C111 136.692 109.106 141.57 88.6014 145.44C65.4686 149.809 36.9317 149.3 20.012 146.497C20.012 146.498 23.4784 149.377 41.2892 150.526Z" fill="#0074BD"/>
</svg>
