<svg width="186" height="199" viewBox="0 0 186 199" fill="none" xmlns="http://www.w3.org/2000/svg">
<path d="M139.172 135.492L139.215 179.508L100.195 199V155.002L139.172 135.492ZM186 111.967V156.137L152.72 172.763L152.696 128.794L186 111.967ZM139.113 76.576L139.156 120.131L100.194 139.511V95.942L139.113 76.576ZM186 53.2425V96.5239L152.686 113.477L152.657 69.8346L186 53.2425ZM94.2627 48.1223L129.089 65.7195L92.9564 83.884L58.7876 66.705L94.2627 48.1223ZM45.8206 23.6455L79.0376 40.4296L43.4811 59.0072L9.36609 41.8573L45.8206 23.6455ZM140.775 23.9L176.553 41.8573L144.555 57.9453L109.657 40.3241L140.775 23.9ZM93.1693 0L125.378 16.1644L94.4945 32.6699L61.3051 15.9135L93.1693 0Z" fill="#4DABCF"/>
<path d="M86.4203 95.9421L60.1376 82.7153V139.886C60.1376 139.886 27.9966 71.4267 25.0185 65.2774C24.6348 64.4839 23.0546 63.6133 22.6506 63.4024C16.8875 60.3731 0 51.8098 0 51.8098V152.815L23.3619 165.316V112.52C23.3619 112.52 55.1621 173.691 55.4839 174.359C55.8058 175.028 59.0005 181.475 62.4103 183.739C66.9535 186.749 86.4253 198.471 86.4253 198.471L86.4203 95.9421Z" fill="#4D77CF"/>
</svg>
