<svg width="143" height="143" viewBox="0 0 143 143" fill="none" xmlns="http://www.w3.org/2000/svg">
<path d="M128.087 27.8004C103.952 -3.45305 59.048 -9.22263 27.7935 14.9168C-3.45638 39.0562 -9.22018 83.9605 14.9191 115.211C39.063 146.459 83.9707 152.22 115.216 128.076C146.453 103.936 152.218 59.0458 128.087 27.8004Z" fill="#F37036"/>
<path d="M102.696 25.6092C100.235 25.8061 97.9011 26.7855 96.0363 28.4042C93.854 30.2995 92.4613 32.9438 92.1328 35.8155C91.8044 38.6872 92.5641 41.5778 94.2621 43.9168C95.9587 46.2563 98.4702 47.8752 101.301 48.4542C104.133 49.0333 107.078 48.5304 109.557 47.0447H109.559L109.739 47.2244C110.555 46.7567 111.315 46.1961 112.003 45.5539C114.125 43.3096 115.292 40.3289 115.259 37.2405C115.225 34.1521 113.993 31.1975 111.823 28.9998V28.9975L101.634 39.1231L101.455 38.9445L111.643 28.8143C110.464 27.6773 109.056 26.8038 107.514 26.2517C105.972 25.6995 104.33 25.4813 102.696 25.6115V25.6092ZM89.2817 42.1841C84.397 42.1761 76.4212 47.7129 56.9466 67.1876L57.0434 67.2866C56.9374 67.2498 56.8303 67.2463 56.8303 67.2463L49.4985 74.5136C49.3102 74.6927 49.1856 74.9284 49.1436 75.1848C49.1016 75.4412 49.1445 75.7044 49.2658 75.9342C49.3871 76.164 49.5801 76.3479 49.8155 76.4579C50.0509 76.5679 50.3158 76.598 50.5699 76.5436L63.1436 73.8615C63.1996 73.8097 63.2368 73.7409 63.2496 73.6657L63.5284 73.9537L59.2427 78.2049H59.0353L33.5907 103.85L41.7543 111.712C41.9823 111.918 42.2703 112.046 42.5763 112.077C42.8823 112.108 43.1901 112.04 43.4547 111.883C43.7215 111.728 43.9352 111.496 44.0678 111.217C44.2004 110.938 44.2457 110.626 44.1978 110.321L43.0054 105.137C42.9304 105.033 42.8901 104.908 42.8901 104.78C42.8901 104.652 42.9304 104.527 43.0054 104.423C54.1506 99.1092 64.5151 92.2935 73.8095 84.1657L68.5848 78.9387L68.6839 78.9226L65.5848 75.8247L65.783 75.6242L65.9927 75.8385L65.8844 75.9433L74.1067 84.3454V84.3419C89.867 69.418 101.054 57.4214 98.1446 49.3477C98.0121 48.3822 97.5636 47.4878 96.8693 46.8039V46.8085C96.6924 46.6779 96.5065 46.5601 96.3128 46.456C96.2172 46.3546 96.1331 46.2509 96.0317 46.1519L95.9557 46.2279C95.7416 46.0985 95.5174 45.9868 95.2852 45.8938L95.6181 45.5574C93.549 43.7141 91.8393 42.1887 89.2817 42.1818V42.1841ZM33.4133 104.003L27.456 109.962V109.966C27.2422 110.099 27.076 110.296 26.9814 110.529C26.8868 110.762 26.8686 111.019 26.9295 111.262C26.9882 111.506 27.1224 111.725 27.3129 111.889C27.5034 112.052 27.7405 112.151 27.9905 112.171L42.5895 113.18L33.4133 104.003Z" fill="white"/>
<path d="M103.701 24.6253C100.357 24.6215 97.1465 25.9333 94.7621 28.2773C93.0658 30.0136 91.9045 32.201 91.4163 34.5787C90.9281 36.9565 91.1337 39.4244 92.0086 41.6886C86.5467 39.3499 79.1573 43.4282 56.1724 66.4087C56.1563 66.444 56.1421 66.4802 56.1297 66.517C56.0825 66.5377 56.0367 66.5615 55.9926 66.5884L48.7242 73.9202C48.3759 74.2621 48.147 74.7073 48.0717 75.1896C47.9964 75.6719 48.0785 76.1657 48.306 76.5976C48.509 76.9395 48.7965 77.2234 49.1409 77.4219C49.4853 77.6205 49.8751 77.727 50.2726 77.7312L50.6332 77.4974L60.3383 75.4271L55.6954 80.1126C55.6691 80.1744 55.6483 80.2384 55.6332 80.3038L32.8798 103.114C32.7892 103.19 32.7141 103.283 32.6586 103.388L26.7992 109.252C26.5075 109.56 26.3082 109.945 26.2239 110.361C26.1396 110.777 26.1737 111.208 26.3223 111.606C26.4756 112 26.7348 112.345 27.0714 112.602C27.4079 112.86 27.8089 113.019 28.2301 113.063L42.7669 114.077C43.0153 113.991 43.2267 113.822 43.366 113.599C43.4903 113.425 43.5571 113.216 43.5571 113.003C43.5571 112.789 43.4903 112.58 43.366 112.406L43.336 112.378C43.6505 112.214 43.9272 111.986 44.1482 111.709C44.3815 111.406 44.5444 111.055 44.6253 110.681C44.7062 110.308 44.703 109.92 44.616 109.548L43.4823 104.724C54.3585 99.5268 64.5489 93.0021 73.8209 85.2992C73.9104 85.3514 74.0065 85.3913 74.1066 85.4179C74.3993 85.396 74.6734 85.2704 74.8808 85.063C90.4914 70.2819 99.6676 60.1529 99.6676 52.1114C99.7022 50.9959 99.534 49.8834 99.171 48.828C100.578 49.4103 102.079 49.7342 103.601 49.7842L103.583 49.7888C105.68 49.7256 107.73 49.1522 109.555 48.1183L109.559 48.1195C109.796 48.1897 110.05 48.167 110.27 48.0561C111.151 47.5374 111.954 46.8967 112.655 46.1529C113.843 44.9873 114.787 43.5966 115.431 42.0619C116.076 40.5273 116.408 38.8796 116.408 37.2151C116.408 35.5507 116.076 33.9031 115.432 32.3684C114.788 30.8338 113.844 29.443 112.656 28.2773C112.613 28.239 112.568 28.204 112.52 28.1725C110.148 25.8959 106.987 24.6252 103.7 24.6264L103.701 24.6253ZM103.601 26.6667C105.929 26.6806 108.189 27.4549 110.036 28.8718L100.741 38.2232C100.71 38.259 100.681 38.2967 100.654 38.3361C100.486 38.5056 100.388 38.7316 100.378 38.9697C100.378 39.1136 100.411 39.2557 100.473 39.3854C100.536 39.515 100.626 39.6289 100.739 39.7186H100.741L107.769 46.7462C105.845 47.5857 103.713 47.8244 101.652 47.4312C99.59 47.0379 97.6954 46.0309 96.216 44.5423C93.2367 41.5469 92.3727 37.0492 93.966 33.1471C95.5593 29.2416 99.3577 26.6898 103.601 26.6667ZM111.803 30.6206C113.323 32.4594 114.152 34.772 114.146 37.1575C114.141 39.9522 113.027 42.6308 111.049 44.6045C110.652 44.9777 110.229 45.3223 109.784 45.6356L104.112 40.0515L103.003 38.9421L103.308 38.6368L111.802 30.6183L111.803 30.6206ZM111.382 35.4513C111.173 35.3857 110.948 35.3984 110.748 35.487C110.55 35.5893 110.401 35.7657 110.333 35.9778C110.3 36.0836 110.288 36.195 110.298 36.3055C110.308 36.4161 110.339 36.5236 110.391 36.6218C110.595 37.0523 110.676 37.5312 110.623 38.0048C110.571 38.4784 110.388 38.9282 110.095 39.3038C110.02 39.3763 109.961 39.4639 109.922 39.5608C109.884 39.6577 109.866 39.7618 109.87 39.866C109.875 40.078 109.951 40.2808 110.095 40.4329C110.249 40.4915 110.418 40.4915 110.572 40.4329C110.71 40.4674 110.856 40.4635 110.992 40.4215C111.129 40.3794 111.251 40.3009 111.346 40.1944C111.837 39.5934 112.147 38.866 112.242 38.096C112.337 37.3261 112.212 36.545 111.882 35.843V35.8476C111.769 35.6588 111.591 35.5178 111.382 35.4513ZM89.1734 43.1967C90.5635 43.2441 91.9011 43.7395 92.9867 44.6091C91.8178 44.7777 90.7345 45.3191 89.898 46.1529L63.6228 72.3107L58.4661 67.154C72.0928 53.5918 80.4246 46.5077 85.6043 44.1863C86.6716 43.5143 87.9124 43.171 89.1734 43.1967ZM93.7413 46.6068C94.6235 46.6075 95.4696 46.957 96.095 47.5792C96.4269 47.8918 96.6888 48.2712 96.8633 48.6924C97.0379 49.1136 97.1212 49.567 97.1077 50.0227C97.0926 50.4769 96.984 50.923 96.7887 51.3333C96.5935 51.7436 96.3158 52.1093 95.9729 52.4075L68.0352 76.7232L65.0203 73.7082L91.3877 47.5792C92.0133 46.9575 92.8593 46.6072 93.7413 46.6068ZM97.1906 54.3234C95.2436 62.0446 84.9246 72.5066 74.1642 82.6725L69.8129 78.3257L97.1906 54.3234ZM56.9466 68.6771L57.2622 68.9882L61.3094 73.0354L50.215 75.4087L56.9466 68.6771ZM63.6205 75.4052L63.6251 75.4098L64.9707 76.7865L64.9915 76.8833L65.0813 76.8971L65.367 77.1898L66.3117 78.1575L60.1078 78.9179L63.6205 75.4052ZM68.0755 80.101L72.1977 84.2209C63.0828 91.8002 53.0805 98.2438 42.4109 103.41C42.0645 103.575 41.786 103.855 41.6228 104.202C41.4595 104.549 41.4217 104.942 41.5157 105.314L42.7081 110.499C42.7521 110.559 42.7758 110.633 42.7758 110.708C42.7758 110.783 42.7521 110.856 42.7081 110.917C42.6426 110.975 42.5577 111.008 42.4697 111.008C42.3816 111.008 42.2967 110.975 42.2312 110.917L35.2013 103.829L56.8694 81.843L68.0755 80.101ZM33.5907 105.378L34.5918 106.315L39.7669 111.49L28.2278 110.744L33.5907 105.378Z" fill="#F37036"/>
</svg>
