<svg width="160" height="159" viewBox="0 0 160 159" fill="none" xmlns="http://www.w3.org/2000/svg">
<path d="M79.4236 0C38.8056 0 41.3417 17.5958 41.3417 17.5958L41.3868 35.8256H80.1479V41.2987H25.9915C25.9915 41.2987 0 38.354 0 79.2941C0 120.235 22.686 118.783 22.686 118.783H36.225V99.7851C36.225 99.7851 35.4951 77.123 58.5489 77.123H96.9929C96.9929 77.123 118.592 77.4716 118.592 56.2703V21.2151C118.592 21.2151 121.872 0 79.4236 0ZM58.0508 12.2592C58.9667 12.2584 59.8739 12.438 60.7202 12.7877C61.5666 13.1375 62.3357 13.6506 62.9833 14.2976C63.631 14.9445 64.1446 15.7128 64.4948 16.5583C64.8449 17.4038 65.0247 18.3099 65.0239 19.2249C65.0247 20.1399 64.8449 21.0461 64.4948 21.8915C64.1446 22.737 63.631 23.5053 62.9833 24.1523C62.3357 24.7992 61.5666 25.3123 60.7202 25.6621C59.8739 26.0118 58.9667 26.1914 58.0508 26.1906C57.1348 26.1914 56.2277 26.0118 55.3813 25.6621C54.5349 25.3123 53.7659 24.7992 53.1182 24.1523C52.4706 23.5053 51.957 22.737 51.6068 21.8915C51.2567 21.0461 51.0769 20.1399 51.0777 19.2249C51.0769 18.3099 51.2567 17.4038 51.6068 16.5583C51.957 15.7128 52.4706 14.9445 53.1182 14.2976C53.7659 13.6506 54.5349 13.1375 55.3813 12.7877C56.2277 12.438 57.1348 12.2584 58.0508 12.2592Z" fill="url(#paint0_linear_35_68)"/>
<path d="M80.5769 159C121.195 159 118.659 141.404 118.659 141.404L118.614 123.175H79.8521V117.702H134.008C134.008 117.702 160 120.647 160 79.7053C160 38.7646 137.314 40.2166 137.314 40.2166H123.775V59.2143C123.775 59.2143 124.505 81.8764 101.451 81.8764H63.007C63.007 81.8764 41.408 81.5278 41.408 102.73V137.786C41.408 137.786 38.1282 159 80.5763 159M101.949 146.742C101.033 146.743 100.126 146.563 99.2797 146.214C98.4333 145.864 97.6643 145.351 97.0166 144.704C96.3689 144.057 95.8553 143.289 95.5052 142.443C95.1551 141.598 94.9753 140.691 94.9761 139.776C94.9752 138.861 95.1549 137.955 95.505 137.11C95.8551 136.264 96.3687 135.496 97.0164 134.849C97.6641 134.202 98.4331 133.688 99.2796 133.339C100.126 132.989 101.033 132.809 101.949 132.81C102.865 132.809 103.772 132.989 104.619 133.339C105.465 133.688 106.234 134.201 106.882 134.848C107.529 135.495 108.043 136.264 108.393 137.109C108.743 137.955 108.923 138.861 108.922 139.776C108.923 140.691 108.743 141.597 108.393 142.442C108.043 143.288 107.529 144.056 106.882 144.703C106.234 145.35 105.465 145.863 104.619 146.213C103.772 146.563 102.865 146.743 101.949 146.742Z" fill="url(#paint1_linear_35_68)"/>
<defs>
<linearGradient id="paint0_linear_35_68" x1="1537.6" y1="1430.11" x2="9458.42" y2="9280.2" gradientUnits="userSpaceOnUse">
<stop stop-color="#387EB8"/>
<stop offset="1" stop-color="#366994"/>
</linearGradient>
<linearGradient id="paint1_linear_35_68" x1="2310.9" y1="2484.79" x2="10817.4" y2="10534.7" gradientUnits="userSpaceOnUse">
<stop stop-color="#FFE052"/>
<stop offset="1" stop-color="#FFC331"/>
</linearGradient>
</defs>
</svg>
