<svg width="158" height="103" viewBox="0 0 158 103" fill="none" xmlns="http://www.w3.org/2000/svg">
<path d="M122.811 35.3507C118.29 33.9295 115.956 34.4086 111.216 33.8899C103.887 33.0914 100.967 30.2268 99.728 22.8559C99.0349 18.7409 99.8533 12.7156 98.0838 8.98563C94.6998 1.87224 86.7811 -1.31801 78.8264 0.503043C72.1093 2.04308 66.5206 8.75537 66.2106 15.6459C65.8571 23.5132 70.3398 30.2268 78.0365 32.5442C81.6946 33.646 85.5795 34.2006 89.3988 34.4817C96.4036 34.993 96.9417 38.8864 98.8352 42.0915C100.031 44.1119 101.188 46.1025 101.188 52.1277C101.188 58.1529 100.023 60.1424 98.8365 62.1627C96.9417 65.3604 94.6043 67.4551 87.5995 67.9725C83.7803 68.2548 79.8866 68.8094 76.2385 69.9124C68.5405 72.2361 64.0579 78.941 64.4113 86.8095C64.7213 93.7001 70.31 100.412 77.0272 101.952C84.9818 103.78 92.9005 100.583 96.2845 93.4698C98.0615 89.7398 99.0349 85.5134 99.728 81.3996C100.974 74.0275 103.894 71.1628 111.216 70.3631C115.956 69.8456 120.863 70.3631 125.306 67.8401C129.999 64.4109 134.194 59.2609 134.194 52.1277C134.194 44.9921 129.674 37.5122 122.811 35.3507Z" fill="#F44250"/>
<path d="M47.6165 68.848C38.3784 68.848 30.8416 61.2988 30.8416 52.0425C30.8416 42.7862 38.3771 35.2383 47.6152 35.2383C56.8533 35.2383 64.3901 42.7874 64.3901 52.0425C64.3901 61.2902 56.8471 68.848 47.6152 68.848H47.6165ZM16.7154 103C7.48971 102.978 -0.0222706 95.3988 4.96112e-05 86.135C0.0223698 76.8874 7.58768 69.3605 16.8332 69.3902C26.0638 69.4125 33.5771 76.9914 33.5485 86.2539C33.5262 95.4941 25.9597 103.022 16.7154 103ZM141.351 103C132.098 103.051 124.505 95.5535 124.451 86.3207C124.4 77.0508 131.884 69.4422 141.1 69.3902C150.353 69.3382 157.948 76.8354 158 86.0682C158.051 95.3307 150.567 102.948 141.351 103Z" fill="#fff"/>
</svg>
