<svg width="100" height="195" viewBox="0 0 100 195" fill="none" xmlns="http://www.w3.org/2000/svg">
<path d="M50.0044 0C60.8724 0 69.6751 7.37438 69.6751 16.4789C69.6751 23.2659 64.7669 29.0986 57.7556 31.6278L57.5423 31.7034V38.6452C57.5423 45.3465 63.488 51.0516 71.397 51.9836L71.6372 52.0101L74.0122 52.2696C86.8677 53.6319 96.8322 61.3741 99.3877 72.014C101.943 82.6539 96.3674 93.0343 85.138 98.4838C80.1107 100.909 74.6337 102.392 68.8544 102.893L68.5654 102.917L32.8637 105.728C29.2239 106.01 25.7903 106.939 22.6153 108.475C16.1356 111.611 14.8707 117.039 15.8516 121.061C16.8231 125.044 20.4508 129.577 27.7118 130.422L30.3079 130.706C45.9485 132.333 57.7689 143.435 58.0032 156.604L58.0071 157.003V163.448C64.8993 166 69.7267 171.796 69.7267 178.521C69.7267 187.625 60.9239 195 50.056 195C39.188 195 30.3852 187.625 30.3852 178.521C30.3852 171.756 35.2684 165.923 42.2544 163.394L42.4665 163.318V157.003C42.4665 150.302 36.5212 144.597 28.6122 143.665L28.3719 143.639L25.9969 143.379C13.1414 142.017 3.17657 134.275 0.621101 123.635C-1.96015 112.995 3.64142 102.614 14.8711 97.1647C19.8985 94.7399 25.375 93.2565 31.1547 92.7555L31.4438 92.7313L67.1454 89.9203C70.7853 89.6388 74.2185 88.7092 77.3939 87.1738C83.8732 84.0378 85.138 78.6098 84.1572 74.5874C83.1861 70.6052 79.5583 66.0719 72.297 65.2263L69.7009 64.9423C54.0603 63.3153 42.2403 52.2136 42.0055 39.0451L42.0016 38.6452V31.5303C35.1352 28.9569 30.3337 23.1827 30.3337 16.4789C30.3337 7.37438 39.1368 0 50.0044 0ZM73.6505 110.27L84.6736 120.391C92.8767 127.948 97.4373 137.689 97.5279 147.871L97.5291 148.18H81.9626C81.9626 141.201 78.9017 134.518 73.3548 129.328L73.1861 129.171L54.4446 111.957L69.4173 110.768L69.89 110.723C71.0118 110.617 72.1318 110.493 73.2368 110.332L73.6505 110.27ZM16.6778 46.9712C16.6778 53.9506 19.7391 60.6335 25.286 65.8236L25.4547 65.9803L44.2477 83.2377L30.4114 84.3405L30.0001 84.3722C28.4934 84.4933 26.9891 84.6762 25.5196 84.921L25.1192 84.9894L13.993 74.7605C5.78986 67.2242 1.22931 57.4625 1.13868 47.2798L1.13751 46.9712H16.6778Z" fill="#9E9E9E"/>
</svg>
