<svg width="171" height="92" viewBox="0 0 171 92" fill="none" xmlns="http://www.w3.org/2000/svg">
<path d="M131.182 78.1772C152.066 57.3495 155.54 27.0281 138.932 10.4673C122.323 -6.09352 91.9382 -2.62668 71.0537 18.201C50.1692 39.0287 56.2087 78.8439 63.3038 85.9109C69.0361 91.6312 110.297 99.0049 131.182 78.1772Z" fill="#F89939"/>
<path d="M45.4791 48.0823C33.36 36.0017 15.7224 33.9883 6.08851 43.5888C-3.54535 53.2026 -1.52772 70.7901 10.5914 82.8707C22.7106 94.9646 45.8666 91.4577 49.9821 87.3642C53.3092 84.044 57.6117 60.1629 45.4791 48.0823Z" fill="#3499CD"/>
<path d="M165.441 74.91C164.667 74.91 164.279 74.4433 164.279 73.4966C164.279 72.7899 164.747 71.2432 165.669 68.8831C167.018 65.4296 167.7 62.9494 167.7 61.4427C167.7 60.536 167.432 59.7759 166.898 59.1759C166.363 58.5759 165.695 58.2692 164.894 58.2692C163.718 58.2692 162.368 58.8159 160.845 59.9226C159.322 61.0293 157.277 63.0161 154.699 65.8962C155.073 64.0295 155.874 61.4694 157.077 58.2159L151.318 59.3226C150.009 62.1494 149.06 64.6962 148.472 66.963C148.178 68.0697 147.964 69.2164 147.817 70.3765C146.013 72.1232 144.838 73.1766 144.33 73.5633C143.809 73.95 143.261 74.1366 142.7 74.1366C142.179 74.1366 141.764 73.9366 141.457 73.55C141.15 73.1633 141.003 72.6299 141.003 71.9765C141.003 71.2698 141.136 70.4565 141.404 69.5364C141.804 68.1564 142.259 66.883 143.181 64.3362L145.372 58.3092L143.221 58.4026C141.27 62.1094 138.985 64.1095 136.366 64.3895C137.074 62.5494 137.435 61.136 137.435 60.1493C137.435 58.8959 136.821 58.2692 135.591 58.2692C134.135 58.2692 132.999 58.9492 132.184 60.3226C131.356 61.696 130.941 62.9894 130.941 64.2028C130.941 66.0229 131.623 66.2696 132.972 66.8696C132.09 68.163 131.102 69.3764 130.033 70.5231C128.763 71.7765 127.775 72.7366 127.053 73.3633C126.318 74.0166 125.637 74.3367 125.022 74.3367C124.06 74.3367 123.579 73.6566 123.579 72.3099C123.579 70.9632 124.113 68.643 125.182 65.1762L127.267 58.2692H125.944L121.12 60.936C120.332 59.1359 118.956 58.2292 116.992 58.2292C115.428 58.2292 113.638 58.8959 111.607 60.216C109.576 61.536 107.906 63.2561 106.609 65.4029C105.607 67.0563 104.993 68.7897 104.766 70.5765C102.948 72.3899 101.585 73.5633 100.677 74.11C99.7281 74.67 98.7393 74.95 97.6971 74.95C95.0381 74.95 93.3946 73.4166 92.7666 70.3498C99.7014 68.323 103.162 65.6829 103.162 62.4294C103.162 61.2027 102.721 60.216 101.839 59.4559C100.957 58.6959 99.7816 58.3225 98.3251 58.3225C95.5058 58.3225 92.9403 59.6693 90.6287 62.3627C88.5309 64.8029 87.3952 67.5097 87.1947 70.4831C85.284 72.3632 83.8409 73.6033 82.9056 74.2033C81.9435 74.8167 81.0349 75.1233 80.1931 75.1233C79.3513 75.1233 78.6833 74.7233 78.1889 73.9233C77.6811 73.1233 77.4272 72.0432 77.4272 70.6698C77.4272 70.0564 77.4941 68.9364 77.6143 67.2963C80.7677 63.8828 83.0793 60.6827 84.5625 57.6825C86.0456 54.6824 86.7805 51.5756 86.7805 48.3754C86.7805 47.242 86.6335 46.3486 86.3396 45.6819C86.0456 45.0152 85.6715 44.6819 85.2172 44.6819C85.1236 44.6819 84.9767 44.7086 84.7896 44.7752L78.7902 46.9887C76.7458 50.8822 74.9954 55.1357 73.5657 59.7626C72.136 64.3762 71.4144 68.3364 71.4144 71.6299C71.4144 73.83 71.9222 75.5767 72.9644 76.8834C73.9933 78.1902 75.3562 78.8435 77.0398 78.8435C78.5096 78.8435 80.0462 78.3768 81.6629 77.4435C83.2797 76.5101 85.1504 75.0567 87.3016 73.0966C89.4529 71.1365 87.3016 73.0699 87.3016 73.0699C87.5555 74.55 88.1701 75.7901 89.1322 76.8034C90.455 78.1635 92.1787 78.8569 94.3166 78.8569C96.2407 78.8569 97.9911 78.3902 99.5811 77.4568C101.118 76.5634 102.841 75.1634 104.766 73.3099C104.926 74.6967 105.38 75.8967 106.142 76.9234C107.117 78.2168 108.293 78.8702 109.669 78.8702C111.046 78.8702 112.462 78.3368 113.798 77.2701C115.134 76.2034 116.577 74.5367 118.154 72.2966C118.007 76.6834 119.183 78.8702 121.668 78.8702C122.657 78.8702 123.699 78.5102 124.782 77.7901C125.864 77.0701 127.668 75.51 130.193 73.1233C132.384 70.9631 133.988 68.9364 135.017 67.043C136.406 66.803 137.676 66.3896 138.838 65.7896C136.46 69.5097 135.271 72.4832 135.271 74.6967C135.271 75.8967 135.605 76.8968 136.259 77.6968C136.914 78.4968 137.729 78.9102 138.691 78.9102C140.789 78.9102 143.769 77.0301 147.617 73.3099C147.617 73.6033 147.59 73.8833 147.59 74.1766C147.59 75.2167 147.684 76.7901 147.844 78.9102L153.068 77.6835C153.068 76.2701 153.095 75.15 153.135 74.31C153.215 73.1899 153.376 71.9632 153.603 70.6298C153.75 69.8431 154.111 69.0964 154.685 68.3897L156.008 66.8563C156.489 66.2963 156.957 65.7896 157.371 65.3496C157.865 64.8295 158.306 64.3895 158.694 64.0295C159.135 63.6428 159.522 63.3228 159.856 63.1094C160.217 62.8961 160.511 62.7761 160.725 62.7761C161.112 62.7761 161.313 63.0294 161.313 63.5361C161.313 64.0428 160.939 65.2162 160.204 67.0696C158.814 70.5231 158.119 73.0966 158.119 74.7767C158.119 76.0167 158.44 77.0034 159.095 77.7501C159.736 78.4835 160.591 78.8569 161.647 78.8569C164.239 78.8569 167.366 76.9368 171 73.1099V70.4031C168.421 73.4299 166.564 74.95 165.415 74.95L165.441 74.91ZM78.2423 63.8561C79.3113 58.6426 80.4069 54.6024 81.516 51.7089C82.625 48.8154 83.4801 47.362 84.0547 47.362C84.3219 47.362 84.5491 47.5354 84.7228 47.8954C84.8965 48.2421 84.9767 48.7221 84.9767 49.2954C84.9767 51.2822 84.362 53.6423 83.106 56.4025C81.8634 59.1493 80.2332 61.6427 78.2423 63.8561ZM93.9959 62.5494C94.9446 60.9627 95.9334 60.176 96.9756 60.176C98.0712 60.176 98.6324 60.936 98.6324 62.4427C98.6324 65.4962 96.6148 67.5763 92.5795 68.7097C92.5795 66.1763 93.0472 64.1228 93.9959 62.5494ZM117.352 70.3498C115.963 73.0299 114.466 74.3633 112.903 74.3633C112.261 74.3633 111.727 74.0966 111.313 73.5766C110.899 73.0566 110.685 72.3632 110.685 71.5098C110.685 69.2697 111.393 66.803 112.796 64.1362C114.199 61.4694 115.695 60.136 117.272 60.136C117.927 60.136 118.461 60.376 118.849 60.8827C119.236 61.376 119.437 62.0694 119.437 62.9494C119.437 65.2162 118.742 67.683 117.352 70.3631V70.3498Z" fill="#010101"/>
<path d="M100.824 47.1755C101.024 47.4555 101.118 47.8156 101.118 48.2422C101.118 48.6689 100.998 49.0556 100.757 49.4156C100.516 49.7756 100.169 50.069 99.7014 50.269C99.2471 50.469 98.726 50.5757 98.1514 50.5757C97.1894 50.5757 96.4678 50.3757 95.9601 49.9757C95.4524 49.5756 95.1317 48.9889 94.998 48.2022L96.2407 48.0022C96.3075 48.4956 96.5079 48.8823 96.8153 49.1356C97.1359 49.4023 97.5769 49.5356 98.1514 49.5356C98.726 49.5356 99.1536 49.4156 99.4342 49.1889C99.7148 48.9623 99.8484 48.6823 99.8484 48.3622C99.8484 48.0822 99.7281 47.8555 99.4743 47.6955C99.3005 47.5889 98.873 47.4422 98.1915 47.2689C97.2696 47.0422 96.6415 46.8422 96.2808 46.6688C95.92 46.4955 95.6528 46.2688 95.4791 45.9621C95.3054 45.6554 95.1985 45.3354 95.1985 44.9754C95.1985 44.6421 95.2786 44.3487 95.4256 44.0687C95.5726 43.7887 95.7864 43.562 96.0403 43.3753C96.2407 43.2287 96.4946 43.1087 96.8286 43.0153C97.1627 42.922 97.5234 42.8686 97.9109 42.8686C98.4855 42.8686 98.9932 42.9486 99.4342 43.122C99.8751 43.282 100.196 43.5087 100.41 43.802C100.623 44.082 100.757 44.4687 100.837 44.9487L99.6079 45.1088C99.5544 44.7354 99.3941 44.4287 99.1269 44.2154C98.8596 44.002 98.4855 43.8954 97.9911 43.8954C97.4165 43.8954 97.0023 43.9887 96.7618 44.1754C96.5213 44.3621 96.3877 44.5887 96.3877 44.8421C96.3877 45.0021 96.4411 45.1488 96.5347 45.2821C96.6416 45.4154 96.8019 45.5221 97.0157 45.6154C97.1359 45.6554 97.5101 45.7621 98.1247 45.9355C99.0066 46.1755 99.6212 46.3621 99.982 46.5088C100.329 46.6555 100.61 46.8822 100.81 47.1622L100.824 47.1755ZM106.797 49.0956C106.462 49.4023 106.062 49.549 105.567 49.549C104.953 49.549 104.458 49.3223 104.084 48.8823C103.71 48.4423 103.51 47.7089 103.51 46.7222C103.51 45.7355 103.71 45.0287 104.097 44.5887C104.485 44.1487 105.006 43.9087 105.634 43.9087C106.048 43.9087 106.409 44.0287 106.703 44.282C106.997 44.5354 107.197 44.9087 107.318 45.4021L108.534 45.2154C108.387 44.4687 108.066 43.8954 107.558 43.4953C107.05 43.0953 106.396 42.8953 105.594 42.8953C104.953 42.8953 104.378 43.042 103.83 43.3487C103.296 43.642 102.882 44.0954 102.628 44.6954C102.36 45.2954 102.227 45.9888 102.227 46.7888C102.227 48.0156 102.534 48.9623 103.149 49.6156C103.763 50.269 104.578 50.6023 105.581 50.6023C106.382 50.6023 107.064 50.3623 107.625 49.8823C108.173 49.4023 108.52 48.7356 108.654 47.8956L107.425 47.7356C107.331 48.3622 107.131 48.8156 106.797 49.1223V49.0956ZM109.723 50.4023H110.979V43.042H109.723V50.4023ZM109.723 41.6686H110.979V40.2285H109.723V41.6686ZM118.715 43.0287H117.098L114.132 46.0288V40.2285H112.876V50.389H114.132V47.4689L115.014 46.6288L117.459 50.389H119.009L115.896 45.7621L118.715 43.0287ZM119.998 41.6686H121.254V40.2285H119.998V41.6686ZM119.998 50.4023H121.254V43.042H119.998V50.4023ZM125.891 49.2823C125.663 49.309 125.476 49.3356 125.343 49.3356C125.156 49.3356 125.009 49.309 124.915 49.2423C124.822 49.1756 124.741 49.0956 124.701 49.0023C124.661 48.8956 124.635 48.6689 124.635 48.3222V44.0154H125.891V43.042H124.635V40.4685L123.392 41.2152V43.042H122.47V44.0154H123.392V48.2556C123.392 49.0023 123.445 49.4956 123.539 49.7223C123.646 49.9623 123.819 50.149 124.06 50.2823C124.314 50.429 124.661 50.4957 125.116 50.4957C125.396 50.4957 125.703 50.4557 126.064 50.389L125.877 49.2823H125.891Z" fill="white"/>
</svg>
