<svg width="217" height="118" viewBox="0 0 217 118" fill="none" xmlns="http://www.w3.org/2000/svg">
<path d="M105.014 1.84983C106.642 -0.616609 110.319 -0.616609 112.008 1.84983L146.552 53.3399L183.273 108.024C182.839 108.796 182.339 109.528 181.778 110.212C181.395 110.669 181.032 111.1 180.579 111.544C180.48 111.638 180.384 111.713 180.265 111.803L180.138 111.9C179.722 112.211 179.295 112.504 178.854 112.78C178.498 113.003 178.204 113.2 177.779 113.404C177.355 113.609 176.675 113.855 176.267 113.995C175.857 114.136 175.721 114.184 175.419 114.251C175.268 114.28 175.117 114.31 174.967 114.329C174.864 114.347 174.762 114.363 174.659 114.377C174.642 114.383 174.617 114.383 174.6 114.389L174.141 114.443C173.659 114.491 173.158 114.516 172.646 114.516C130.034 119.161 87.0425 119.161 44.43 114.516C44.3814 114.517 44.3328 114.515 44.2842 114.509H44.1401L44.0731 114.503H44.0079C43.9587 114.497 43.9104 114.497 43.8629 114.491H43.8146C43.7476 114.485 43.6875 114.485 43.6222 114.48C43.2238 114.449 42.761 114.349 42.4287 114.275C42.0956 114.208 41.8972 114.154 41.6209 114.093C38.3405 113.316 35.3279 111.338 33.9471 108.139C33.9106 108.054 33.8801 107.97 33.8436 107.885L33.8386 107.868L0.190915 22.0585C-0.713532 19.648 1.75908 17.2358 4.16896 18.3817C4.22999 18.3817 4.35036 18.3817 4.41139 18.4419L70.4454 53.339L105.014 1.84983ZM212.672 18.4428C215.089 17.1172 217.681 19.4064 216.837 21.9381V22.0593L183.274 108.025L146.552 53.3399L212.611 18.4428H212.672Z" fill="#FF4B4B"/>
<path d="M212.672 18.4426H212.612L146.553 53.3397L183.274 108.025L216.837 22.0592V21.938C217.681 19.4063 215.089 17.117 212.672 18.4426Z" fill="#7D353B"/>
<path d="M112.008 1.84983C110.319 -0.616609 106.642 -0.616609 105.014 1.84983L70.4453 53.3399L108.486 73.4468L180.579 111.544C181.032 111.1 181.395 110.669 181.778 110.213C182.339 109.528 182.839 108.796 183.273 108.024L146.553 53.3399L112.008 1.84983Z" fill="#BD4043"/>
</svg>
