<svg width="18" height="18" viewBox="0 0 18 18" fill="none" xmlns="http://www.w3.org/2000/svg">
  <g clip-path="url(#clip0_702_32808)">
    <path d="M9 0.428711C4.22857 0.428711 0.428571 4.22871 0.428571 9.00014C0.428571 12.893 2.98214 16.1076 6.39286 17.2326C6.69643 17.3218 6.82143 17.1076 6.82143 16.9469C6.82143 16.8218 6.82143 16.303 6.82143 15.5897C4.41071 16.0361 3.96429 14.893 3.96429 14.893C3.60714 13.9826 3.07143 13.6969 3.07143 13.6969C2.28571 13.2326 3.14286 13.2326 3.14286 13.2326C4.03571 13.303 4.48214 14.1426 4.48214 14.1426C5.28571 15.4101 6.69643 15.0001 7.23214 14.8218C7.32143 14.3218 7.5 14.0001 7.71429 13.803C5.53571 13.5897 3.28571 12.9469 3.28571 9.48256C3.28571 8.58971 3.60714 7.83971 4.14286 7.23256C4.03571 7.00014 3.71429 6.07185 4.28571 4.58971C4.28571 4.58971 5.03571 4.30399 6.82143 5.58971C7.5 5.44685 8.25 5.37542 9 5.37542C9.75 5.37542 10.5 5.44685 11.1786 5.58971C12.9643 4.30399 13.7143 4.58971 13.7143 4.58971C14.2857 6.07185 13.9643 7.00014 13.8571 7.23256C14.3929 7.83971 14.7143 8.58971 14.7143 9.48256C14.7143 12.9469 12.4643 13.5897 10.2857 13.803C10.6071 14.0718 10.8214 14.5897 10.8214 15.303C10.8214 16.2326 10.8214 16.8218 10.8214 16.9469C10.8214 17.1076 10.9464 17.3218 11.25 17.2326C14.6607 16.1076 17.2143 12.893 17.2143 9.00014C17.2143 4.22871 13.4143 0.428711 9 0.428711Z" fill="#FCF6F4"/>
  </g>
  <defs>
    <clipPath id="clip0_702_32808">
      <rect width="17.1429" height="17.1429" fill="white" transform="translate(0.428711 0.428711)"/>
    </clipPath>
  </defs>
</svg>
