<svg width="18" height="18" viewBox="0 0 18 18" fill="none" xmlns="http://www.w3.org/2000/svg">
  <g clip-path="url(#clip0_702_32808)">
    <path d="M2.625 0.428711C1.41071 0.428711 0.428571 1.41085 0.428571 2.62514C0.428571 3.83942 1.41071 4.82185 2.625 4.82185C3.83929 4.82185 4.82143 3.83942 4.82143 2.62514C4.82143 1.41085 3.83929 0.428711 2.625 0.428711ZM0.857143 6.07185H4.39286V17.5718H0.857143V6.07185ZM6.71429 6.07185H10.0714V7.32185H10.125C10.6429 6.44685 11.8214 5.48256 13.4107 5.48256C16.2857 5.48256 17.5714 7.26799 17.5714 10.2854V17.5718H14.0357V10.8754C14.0357 9.62542 13.875 8.51799 12.5536 8.51799C11.25 8.51799 10.8571 9.48256 10.8571 10.6968V17.5718H7.32143V6.07185H6.71429Z" fill="#FCF6F4"/>
  </g>
  <defs>
    <clipPath id="clip0_702_32808">
      <rect width="17.1429" height="17.1429" fill="white" transform="translate(0.428711 0.428711)"/>
    </clipPath>
  </defs>
</svg>
