<svg width="24" height="12" viewBox="0 0 24 12" fill="none" xmlns="http://www.w3.org/2000/svg">
<path d="M4.215 0.000154956C2.354 -0.012845 0.584 0.793155 0 2.03015C3.68 1.03215 5.747 1.69816 8.244 4.66816C9.234 5.85216 10.139 7.11816 11.236 8.17815C12.334 9.25815 13.539 10.3392 14.873 11.0042C17.843 12.4792 21.675 11.4192 22.923 9.01015C22.536 9.15515 22.171 9.28016 21.805 9.42616C20.112 10.6072 17.885 10.6302 16.057 9.05116C14.184 7.43116 12.57 5.51915 10.891 3.69115C9.276 1.94715 7.555 0.390155 5.016 0.0571551C4.75057 0.0202891 4.48297 0.00124627 4.215 0.000154956ZM19.854 1.71916C18.897 1.70616 17.854 2.02015 16.811 2.69515C15.777 3.38115 14.851 4.23316 13.84 5.04316C13.237 4.64816 12.636 4.23316 12.033 3.83816C11.99 3.90016 11.923 3.98316 11.881 4.04516C12.031 4.23216 12.205 4.39916 12.355 4.58516C13.216 5.54115 14.098 6.51616 15.045 7.45116C15.992 6.59916 16.768 5.85315 17.607 5.14615C20.018 3.11115 22.235 3.42115 24 6.18415C23.645 3.35615 21.958 1.74716 19.854 1.71916ZM4.393 6.45515C5.684 11.8772 9.126 11.3572 11.473 10.1932C12.097 10.4842 13.001 10.7962 13.582 11.0662C13.625 11.0042 13.689 10.9412 13.732 10.8792C12.699 10.2142 11.754 9.34115 10.892 8.50915C10.677 8.30215 10.482 8.09416 10.289 7.88716C6.953 10.7532 4.393 6.45515 4.393 6.45515Z" fill="white"/>
</svg>
