<svg width="20" height="22" viewBox="0 0 20 22" fill="none" xmlns="http://www.w3.org/2000/svg">
<path d="M10 21.9999C9.68945 21.9999 9.39961 21.9191 9.13047 21.7776L6.3768 20.1809C5.96273 19.9586 6.16977 19.8777 6.29398 19.8373C6.85297 19.6554 6.95648 19.615 7.53617 19.2916C7.59836 19.2511 7.68117 19.2714 7.7432 19.3118L9.85508 20.5447C9.93789 20.5851 10.0414 20.5851 10.1035 20.5447L18.3645 15.8759C18.4473 15.8355 18.4887 15.7547 18.4887 15.6536V6.33613C18.4887 6.23508 18.4473 6.15424 18.3645 6.11382L10.1035 1.46518C10.0207 1.42476 9.91719 1.42476 9.85508 1.46518L1.59414 6.11389C1.51133 6.15431 1.46992 6.25537 1.46992 6.33621V15.6536C1.46992 15.7345 1.51133 15.8355 1.59414 15.8759L3.85094 17.1492C5.0725 17.7555 5.83844 17.0481 5.83844 16.3408V7.14455C5.83844 7.02329 5.94203 6.90202 6.08695 6.90202H7.14289C7.26711 6.90202 7.39133 7.00308 7.39133 7.14455V16.3407C7.39133 17.9374 6.50102 18.8671 4.9482 18.8671C4.47203 18.8671 4.09938 18.8671 3.04352 18.3618L0.869531 17.1492C0.33125 16.8459 0 16.2801 0 15.6737V6.35642C0 5.7501 0.33125 5.18421 0.869531 4.88098L9.13047 0.21221C9.64805 -0.0707366 10.352 -0.0707366 10.8695 0.21221L19.1305 4.88098C19.6687 5.18414 20 5.75003 20 6.35642V15.6738C20 16.2801 19.6687 16.846 19.1305 17.1492L10.8695 21.8181C10.6004 21.9394 10.2898 22 10 22M12.5466 15.593C8.92336 15.593 8.17805 13.9761 8.17805 12.6018C8.17805 12.4805 8.28156 12.3592 8.42648 12.3592H9.50305C9.62727 12.3592 9.73086 12.4401 9.73086 12.5613C9.89648 13.6325 10.3727 14.158 12.5673 14.158C14.3064 14.158 15.0518 13.774 15.0518 12.8646C15.0518 12.339 14.8448 11.955 12.1325 11.6922C9.87578 11.4699 8.46789 10.9848 8.46789 9.22653C8.46789 7.58933 9.8757 6.61923 12.236 6.61923C14.8861 6.61923 16.1905 7.50849 16.3561 9.44877C16.3561 9.50943 16.3354 9.57006 16.294 9.63066C16.2526 9.67109 16.1905 9.71151 16.1284 9.71151H15.0518C14.9482 9.71151 14.8448 9.63066 14.824 9.52961C14.5755 8.41804 13.9338 8.05425 12.236 8.05425C10.3313 8.05425 10.1035 8.70098 10.1035 9.18603C10.1035 9.77221 10.3727 9.95403 12.9399 10.2774C15.4866 10.6008 16.6873 11.0657 16.6873 12.8039C16.6666 14.5825 15.176 15.593 12.5466 15.593Z" fill="#539E43"/>
</svg>
