<svg width="24" height="22" viewBox="0 0 24 22" fill="none" xmlns="http://www.w3.org/2000/svg">
<path d="M12.1693 0.000154202C11.9774 0.00330782 11.7945 0.0818826 11.6601 0.218875C11.5258 0.355868 11.4507 0.540261 11.4513 0.732154V14.6462C11.451 14.7424 11.4698 14.8377 11.5065 14.9266C11.5432 15.0155 11.5971 15.0963 11.6651 15.1643C11.7331 15.2324 11.8139 15.2863 11.9028 15.323C11.9918 15.3597 12.0871 15.3784 12.1833 15.3782C12.2795 15.3784 12.3748 15.3597 12.4637 15.323C12.5526 15.2863 12.6334 15.2324 12.7015 15.1643C12.7695 15.0963 12.8234 15.0155 12.8601 14.9266C12.8968 14.8377 12.9155 14.7424 12.9153 14.6462V0.732154C12.9156 0.634846 12.8964 0.538462 12.8589 0.448669C12.8214 0.358877 12.7663 0.277489 12.6969 0.209289C12.6275 0.141089 12.5451 0.0874554 12.4547 0.0515404C12.3643 0.0156254 12.2666 -0.00184572 12.1693 0.000154202ZM23.2453 4.16815C23.1496 4.17 23.0553 4.19144 22.9683 4.23115L16.6863 7.03515C16.5578 7.09321 16.4487 7.18712 16.3722 7.3056C16.2957 7.42409 16.255 7.56213 16.255 7.70315C16.255 7.84418 16.2957 7.98222 16.3722 8.1007C16.4487 8.21919 16.5578 8.31309 16.6863 8.37115L22.9683 11.1852C23.0623 11.2284 23.1648 11.2503 23.2683 11.2492C23.4356 11.2486 23.5978 11.1908 23.7276 11.0852C23.8575 10.9797 23.9473 10.8328 23.982 10.6691C24.0167 10.5054 23.9943 10.3347 23.9185 10.1855C23.8427 10.0363 23.718 9.91759 23.5653 9.84915L18.7793 7.70415L23.5653 5.56715C23.742 5.48759 23.88 5.34138 23.9494 5.16041C24.0187 4.97944 24.0136 4.7784 23.9353 4.60115C23.8763 4.46858 23.7792 4.35658 23.6563 4.27946C23.5334 4.20234 23.3903 4.16359 23.2453 4.16815ZM0.745275 9.20015C0.632446 9.19811 0.520672 9.22218 0.418684 9.27048C0.316696 9.31878 0.227257 9.39001 0.157353 9.4786C0.0874499 9.56719 0.0389753 9.67074 0.0157166 9.78116C-0.00754221 9.89159 -0.00495532 10.0059 0.0232751 10.1152C1.75928 16.7922 7.79827 21.4562 14.7063 21.4562C14.9004 21.4562 15.0866 21.379 15.2239 21.2418C15.3612 21.1045 15.4383 20.9183 15.4383 20.7242C15.4383 20.53 15.3612 20.3438 15.2239 20.2066C15.0866 20.0693 14.9004 19.9922 14.7063 19.9922C11.6731 19.9934 8.72513 18.9884 6.32432 17.1346C3.9235 15.2808 2.20543 12.683 1.43928 9.74815C1.39929 9.59365 1.30978 9.45651 1.18444 9.35772C1.0591 9.25893 0.904842 9.20293 0.745275 9.20015Z" fill="white"/>
</svg>
