<svg width="28" height="25" viewBox="0 0 28 25" fill="none" xmlns="http://www.w3.org/2000/svg">
<path d="M14 14.9316C15.3807 14.9316 16.5 13.8124 16.5 12.4316C16.5 11.0509 15.3807 9.93164 14 9.93164C12.6193 9.93164 11.5 11.0509 11.5 12.4316C11.5 13.8124 12.6193 14.9316 14 14.9316Z" fill="#00D8FF"/>
<path d="M14 18.1637C10.9951 18.2361 7.99785 17.8311 5.12 16.9637C3.79062 16.5423 2.55073 15.8784 1.463 15.0057C1.04779 14.7077 0.702025 14.3233 0.449479 13.879C0.196934 13.4346 0.0435939 12.9409 0 12.4317C0 10.7787 1.816 9.15868 4.858 8.09868C7.81291 7.1602 10.9 6.70501 14 6.75068C17.0587 6.7084 20.1044 7.15537 23.022 8.07468C24.3021 8.48331 25.4999 9.11503 26.56 9.94068C26.9675 10.2254 27.3077 10.596 27.5565 11.0264C27.8053 11.4567 27.9567 11.9364 28 12.4317C28 14.1497 25.97 15.8907 22.7 16.9727C19.8779 17.8121 16.9438 18.2137 14 18.1637ZM14 7.94668C11.0342 7.90792 8.08102 8.34065 5.251 9.22868C2.451 10.2057 1.196 11.5417 1.196 12.4287C1.196 13.3567 2.545 14.8157 5.507 15.8287C8.26004 16.6547 11.1266 17.0391 14 16.9677C16.8164 17.018 19.6239 16.637 22.325 15.8377C25.4 14.8187 26.8 13.3577 26.8 12.4317C26.7494 12.114 26.6335 11.8102 26.4597 11.5395C26.2858 11.2687 26.0578 11.0369 25.79 10.8587C24.8417 10.1259 23.7717 9.56604 22.629 9.20468C19.8379 8.32908 16.9249 7.9044 14 7.94668Z" fill="#00D8FF"/>
<path d="M8.31961 24.9005C7.85312 24.9112 7.39213 24.798 6.98361 24.5725C5.55161 23.7465 5.05561 21.3645 5.65661 18.1995C6.32001 15.1709 7.46812 12.2692 9.05661 9.60653C10.5477 6.93587 12.4561 4.52073 14.7096 2.45253C15.7031 1.54764 16.8487 0.825527 18.0936 0.319533C18.5441 0.109074 19.0353 0 19.5326 0C20.0299 0 20.5211 0.109074 20.9716 0.319533C22.4606 1.17753 22.9536 3.80553 22.2586 7.17853C21.5756 10.0431 20.4573 12.786 18.9426 15.3115C17.5041 17.9508 15.6558 20.3449 13.4666 22.4045C12.4374 23.3453 11.2429 24.0875 9.94361 24.5935C9.42356 24.7871 8.87442 24.8909 8.31961 24.9005ZM10.0926 10.2005C8.5775 12.7503 7.47712 15.5245 6.83261 18.4195C6.27961 21.3345 6.81061 23.0875 7.58261 23.5335C8.38261 23.9965 10.3246 23.5575 12.6826 21.4975C14.7727 19.5246 16.537 17.2328 17.9096 14.7075C19.3605 12.293 20.4333 9.67067 21.0906 6.93153C21.7446 3.75653 21.1796 1.81253 20.3776 1.35053C20.077 1.23554 19.7558 1.18408 19.4343 1.1994C19.1128 1.21471 18.7979 1.29648 18.5096 1.43953C17.4013 1.89699 16.3824 2.54626 15.4996 3.35753C13.3467 5.33874 11.5238 7.65081 10.0996 10.2065L10.0926 10.2005Z" fill="#00D8FF"/>
<path d="M19.6767 24.9135C18.3217 24.9135 16.6007 24.0935 14.8087 22.5525C12.5159 20.4652 10.5753 18.0215 9.06168 15.3155C7.49279 12.6897 6.35375 9.82992 5.68768 6.8445C5.3995 5.53092 5.34601 4.17671 5.52968 2.8445C5.57287 2.35046 5.72361 1.87185 5.97132 1.44223C6.21904 1.0126 6.55775 0.642375 6.96368 0.357498C8.45068 -0.503502 10.9737 0.381498 13.5487 2.6675C15.6893 4.68968 17.5071 7.0282 18.9387 9.6015C20.5067 12.166 21.6577 14.9631 22.3487 17.8885C22.6498 19.2502 22.6962 20.6559 22.4857 22.0345C22.4358 22.543 22.2764 23.0346 22.0185 23.4756C21.7606 23.9167 21.4103 24.2967 20.9917 24.5895C20.5897 24.8118 20.1359 24.9236 19.6767 24.9135ZM10.0967 14.7135C11.5488 17.2994 13.4026 19.6383 15.5887 21.6425C17.8377 23.5775 19.6217 23.9935 20.3887 23.5425C21.1887 23.0775 21.7787 21.1795 21.1707 18.1085C20.5048 15.3154 19.4008 12.6453 17.8997 10.1975C16.5335 7.73462 14.7984 5.49536 12.7547 3.5575C10.3307 1.4055 8.36468 0.924499 7.56368 1.3885C7.31417 1.5915 7.10938 1.84397 6.96223 2.13001C6.81508 2.41605 6.72876 2.72946 6.70868 3.0505C6.54981 4.23859 6.60161 5.44539 6.86168 6.6155C7.50256 9.47046 8.59496 12.2048 10.0977 14.7155L10.0967 14.7135Z" fill="#00D8FF"/>
</svg>
