<svg width="8" height="7" viewBox="0 0 8 9" fill="none" xmlns="http://www.w3.org/2000/svg">
<path d="M0.660511 9V0.272727H4.26562C4.91903 0.272727 5.48295 0.390625 5.95739 0.62642C6.43466 0.859375 6.80256 1.1946 7.06108 1.6321C7.3196 2.06676 7.44886 2.58239 7.44886 3.17898C7.44886 3.78409 7.31676 4.2983 7.05256 4.72159C6.78835 5.14205 6.41335 5.46307 5.92756 5.68466C5.44176 5.90341 4.86648 6.01278 4.2017 6.01278H1.92188V4.35085H3.80966C4.12784 4.35085 4.39347 4.30966 4.60653 4.22727C4.82244 4.14205 4.9858 4.0142 5.09659 3.84375C5.20739 3.67045 5.26278 3.44886 5.26278 3.17898C5.26278 2.90909 5.20739 2.68608 5.09659 2.50994C4.9858 2.33097 4.82244 2.19744 4.60653 2.10938C4.39063 2.01847 4.125 1.97301 3.80966 1.97301H2.76989V9H0.660511ZM5.57386 5.01136L7.74716 9H5.44602L3.31534 5.01136H5.57386Z" fill="#00D8FF"/>
</svg>
