<?xml version="1.0" encoding="UTF-8"?>
<svg id="Layer_1" data-name="Layer 1" xmlns="http://www.w3.org/2000/svg" viewBox="0 0 500 500">
  <rect width="500" height="500" fill="#f0dc4e" stroke-width="0"/>
  <g>
    <path d="m270.955,462.811l-46.016-83.521h-12.922v83.521h-53.895v-221.252h90.456c17.438,0,32.305,3.048,44.597,9.14,12.292,6.096,21.481,14.448,27.578,25.056,6.091,10.613,9.14,22.431,9.14,35.457,0,14.71-4.151,27.843-12.449,39.397-8.303,11.558-20.54,19.752-36.718,24.584l51.059,87.618h-60.829Zm-58.938-121.657h33.408c9.874,0,17.281-2.413,22.22-7.249,4.934-4.831,7.406-11.662,7.406-20.486,0-8.402-2.472-15.02-7.406-19.856-4.94-4.831-12.347-7.249-22.22-7.249h-33.408v54.84Z" fill="#323230" stroke-width="0"/>
    <path d="m441.149,293.404c9.455-5.565,19.96-8.352,31.517-8.352v57.047h-14.813c-13.449,0-23.534,2.891-30.257,8.667-6.727,5.781-10.085,15.917-10.085,30.414v81.63h-53.895v-175.867h53.895v29.312c6.303-9.662,14.183-17.281,23.638-22.85Z" fill="#323230" stroke-width="0"/>
  </g>
</svg>