<svg width="11" height="16" viewBox="0 0 11 16" fill="none" xmlns="http://www.w3.org/2000/svg">
<path d="M5 11H3C2.60444 11 2.21776 11.1173 1.88886 11.3371C1.55996 11.5568 1.30362 11.8692 1.15224 12.2346C1.00087 12.6001 0.96126 13.0022 1.03843 13.3902C1.1156 13.7781 1.30608 14.1345 1.58579 14.4142C1.86549 14.6939 2.22186 14.8844 2.60982 14.9616C2.99778 15.0387 3.39992 14.9991 3.76537 14.8478C4.13082 14.6964 4.44318 14.44 4.66294 14.1111C4.8827 13.7822 5 13.3956 5 13V11Z" stroke="#A6DA95" stroke-linecap="round" stroke-linejoin="round"/>
<path d="M5 10V6H3C2.46957 6 1.96086 6.21071 1.58579 6.58579C1.21071 6.96086 1 7.46957 1 8C1 8.53043 1.21071 9.03914 1.58579 9.41421C1.96086 9.78929 2.46957 10 3 10H5Z" stroke="#C6A0F6" stroke-linecap="round" stroke-linejoin="round"/>
<path d="M5 5V1H3C2.46957 1 1.96086 1.21071 1.58579 1.58579C1.21071 1.96086 1 2.46957 1 3C1 3.53043 1.21071 4.03914 1.58579 4.41421C1.96086 4.78929 2.46957 5 3 5H5Z" stroke="#ED8796" stroke-linecap="round" stroke-linejoin="round"/>
<path d="M8 5C8.53043 5 9.03914 4.78929 9.41421 4.41421C9.78929 4.03914 10 3.53043 10 3C10 2.46957 9.78929 1.96086 9.41421 1.58579C9.03914 1.21071 8.53043 1 8 1H6V5H8Z" stroke="#F5A97F" stroke-linecap="round" stroke-linejoin="round"/>
<path d="M10 8C10 8.53043 9.78929 9.03914 9.41421 9.41421C9.03914 9.78929 8.53043 10 8 10C7.46957 10 6.96086 9.78929 6.58579 9.41421C6.21071 9.03914 6 8.53043 6 8C6 7.46957 6.21071 6.96086 6.58579 6.58579C6.96086 6.21071 7.46957 6 8 6C8.53043 6 9.03914 6.21071 9.41421 6.58579C9.78929 6.96086 10 7.46957 10 8Z" stroke="#91D7E3" stroke-linecap="round" stroke-linejoin="round"/>
</svg>
