<svg width="16" height="22" viewBox="0 0 16 22" fill="none" xmlns="http://www.w3.org/2000/svg">
<path d="M4.3335 7.667C3.4494 7.667 2.60151 7.31579 1.97636 6.69064C1.35121 6.06549 1 5.2176 1 4.3335C1 3.4494 1.35121 2.60151 1.97636 1.97636C2.60151 1.35121 3.4494 1 4.3335 1H7.6665V7.667M4.3335 7.667H7.6665M4.3335 7.667C3.44953 7.667 2.60177 8.01815 1.97671 8.64321C1.35165 9.26827 1.0005 10.116 1.0005 11C1.0005 11.884 1.35165 12.7317 1.97671 13.3568C2.60177 13.9818 3.44953 14.333 4.3335 14.333H7.6665V7.667" stroke="white" stroke-width="1.5"/>
<path d="M14.3335 11C14.3335 11.8841 13.9823 12.732 13.3571 13.3571C12.732 13.9823 11.8841 14.3335 11 14.3335C10.1159 14.3335 9.26801 13.9823 8.64286 13.3571C8.01771 12.732 7.6665 11.8841 7.6665 11C7.6665 10.1159 8.01771 9.26802 8.64286 8.64286C9.26801 8.01771 10.1159 7.6665 11 7.6665C11.8841 7.6665 12.732 8.01771 13.3571 8.64286C13.9823 9.26802 14.3335 10.1159 14.3335 11ZM4.3335 14.334H7.6665V17.667C7.6663 18.3262 7.47066 18.9705 7.1043 19.5184C6.73795 20.0664 6.21734 20.4935 5.60829 20.7456C4.99925 20.9977 4.32913 21.0636 3.68265 20.9348C3.03618 20.8061 2.44239 20.4886 1.97636 20.0224C1.51033 19.5563 1.19299 18.9624 1.06447 18.3159C0.935947 17.6694 1.00201 16.9993 1.25431 16.3903C1.5066 15.7813 1.9338 15.2608 2.48189 14.8946C3.02998 14.5285 3.67434 14.334 4.3335 14.334Z" stroke="white" stroke-width="1.5"/>
<path d="M7.6665 1H10.9995C11.8836 1 12.7315 1.35121 13.3566 1.97636C13.9818 2.60151 14.333 3.4494 14.333 4.3335C14.333 5.2176 13.9818 6.06549 13.3566 6.69064C12.7315 7.31579 11.8836 7.667 10.9995 7.667H7.6665V1Z" stroke="white" stroke-width="1.5"/>
</svg>
